<mxfile host="app.diagrams.net" modified="2021-07-01T12:12:57.666Z" agent="5.0 (Windows NT 10.0; Win64; x64) AppleWebKit/537.36 (KHTML, like Gecko) Chrome/91.0.4472.124 Safari/537.36" etag="2ZeWXzi0l1k5-GKWfhhS" version="14.8.3" type="github">
  <diagram id="ilNG3FVxwiZf4AdZjmhc" name="第 1 页">
    <mxGraphModel dx="720" dy="747" grid="1" gridSize="10" guides="1" tooltips="1" connect="1" arrows="1" fold="1" page="1" pageScale="1" pageWidth="850" pageHeight="1100" math="0" shadow="0">
      <root>
        <mxCell id="0" />
        <mxCell id="1" parent="0" />
        <mxCell id="r303i7ZnumjzU3YoIEiV-4" style="edgeStyle=orthogonalEdgeStyle;rounded=0;orthogonalLoop=1;jettySize=auto;html=1;exitX=1;exitY=0;exitDx=0;exitDy=0;entryX=0;entryY=0.5;entryDx=0;entryDy=0;" edge="1" parent="1" source="bJFR1BYT5Pr1T7JZ50Ed-1" target="r303i7ZnumjzU3YoIEiV-1">
          <mxGeometry relative="1" as="geometry" />
        </mxCell>
        <mxCell id="r303i7ZnumjzU3YoIEiV-5" value="sync fs info" style="edgeLabel;html=1;align=center;verticalAlign=middle;resizable=0;points=[];" vertex="1" connectable="0" parent="r303i7ZnumjzU3YoIEiV-4">
          <mxGeometry x="0.025" y="-2" relative="1" as="geometry">
            <mxPoint as="offset" />
          </mxGeometry>
        </mxCell>
        <mxCell id="bJFR1BYT5Pr1T7JZ50Ed-1" value="life" style="rounded=1;whiteSpace=wrap;html=1;" parent="1" vertex="1">
          <mxGeometry x="200" y="250" width="80" height="50" as="geometry" />
        </mxCell>
        <mxCell id="r303i7ZnumjzU3YoIEiV-6" style="edgeStyle=orthogonalEdgeStyle;rounded=0;orthogonalLoop=1;jettySize=auto;html=1;exitX=1;exitY=0.5;exitDx=0;exitDy=0;entryX=0;entryY=0.5;entryDx=0;entryDy=0;entryPerimeter=0;" edge="1" parent="1" source="r303i7ZnumjzU3YoIEiV-1" target="r303i7ZnumjzU3YoIEiV-2">
          <mxGeometry relative="1" as="geometry" />
        </mxCell>
        <mxCell id="r303i7ZnumjzU3YoIEiV-7" value="maintain fs cache" style="edgeLabel;html=1;align=center;verticalAlign=middle;resizable=0;points=[];" vertex="1" connectable="0" parent="r303i7ZnumjzU3YoIEiV-6">
          <mxGeometry x="-0.2914" y="3" relative="1" as="geometry">
            <mxPoint as="offset" />
          </mxGeometry>
        </mxCell>
        <mxCell id="r303i7ZnumjzU3YoIEiV-1" value="root" style="rounded=1;whiteSpace=wrap;html=1;" vertex="1" parent="1">
          <mxGeometry x="385" y="170" width="80" height="50" as="geometry" />
        </mxCell>
        <mxCell id="r303i7ZnumjzU3YoIEiV-2" value="db" style="shape=cylinder3;whiteSpace=wrap;html=1;boundedLbl=1;backgroundOutline=1;size=15;" vertex="1" parent="1">
          <mxGeometry x="640" y="155" width="60" height="80" as="geometry" />
        </mxCell>
        <mxCell id="r303i7ZnumjzU3YoIEiV-3" value="cos" style="shape=cylinder3;whiteSpace=wrap;html=1;boundedLbl=1;backgroundOutline=1;size=15;" vertex="1" parent="1">
          <mxGeometry x="640" y="380" width="60" height="80" as="geometry" />
        </mxCell>
        <mxCell id="r303i7ZnumjzU3YoIEiV-8" value="object task&amp;nbsp;" style="strokeWidth=2;html=1;shape=mxgraph.flowchart.direct_data;whiteSpace=wrap;" vertex="1" parent="1">
          <mxGeometry x="385" y="340" width="100" height="60" as="geometry" />
        </mxCell>
        <mxCell id="r303i7ZnumjzU3YoIEiV-9" value="file inode task&amp;nbsp; &amp;nbsp; &amp;nbsp;" style="strokeWidth=2;html=1;shape=mxgraph.flowchart.direct_data;whiteSpace=wrap;" vertex="1" parent="1">
          <mxGeometry x="385" y="450" width="100" height="60" as="geometry" />
        </mxCell>
        <mxCell id="r303i7ZnumjzU3YoIEiV-10" value="partitionPath task&amp;nbsp;&amp;nbsp;" style="strokeWidth=2;html=1;shape=mxgraph.flowchart.direct_data;whiteSpace=wrap;" vertex="1" parent="1">
          <mxGeometry x="385" y="570" width="100" height="60" as="geometry" />
        </mxCell>
        <mxCell id="r303i7ZnumjzU3YoIEiV-11" value="fileSystem task&amp;nbsp; &amp;nbsp;&amp;nbsp;" style="strokeWidth=2;html=1;shape=mxgraph.flowchart.direct_data;whiteSpace=wrap;" vertex="1" parent="1">
          <mxGeometry x="385" y="680" width="100" height="60" as="geometry" />
        </mxCell>
        <mxCell id="r303i7ZnumjzU3YoIEiV-12" value="gcInode task&amp;nbsp;" style="strokeWidth=2;html=1;shape=mxgraph.flowchart.direct_data;whiteSpace=wrap;" vertex="1" parent="1">
          <mxGeometry x="385" y="800" width="100" height="60" as="geometry" />
        </mxCell>
        <mxCell id="r303i7ZnumjzU3YoIEiV-13" value="gcfs task&amp;nbsp;" style="strokeWidth=2;html=1;shape=mxgraph.flowchart.direct_data;whiteSpace=wrap;" vertex="1" parent="1">
          <mxGeometry x="385" y="910" width="100" height="60" as="geometry" />
        </mxCell>
      </root>
    </mxGraphModel>
  </diagram>
</mxfile>
